<?xml version="1.0" encoding="UTF-8" standalone="no"?>
<!DOCTYPE svg PUBLIC "-//W3C//DTD SVG 1.1//EN"
 "http://www.w3.org/Graphics/SVG/1.1/DTD/svg11.dtd">
<!-- Generated by graphviz version 2.40.1 (20161225.0304)
 -->
<!-- Title: dependencies Pages: 1 -->
<svg width="846pt" height="211pt"
 viewBox="0.00 0.00 846.00 211.00" xmlns="http://www.w3.org/2000/svg" xmlns:xlink="http://www.w3.org/1999/xlink">
<g id="graph0" class="graph" transform="scale(1 1) rotate(0) translate(4 207)">
<title>dependencies</title>
<polygon fill="#ffffff" stroke="transparent" points="-4,4 -4,-207 842,-207 842,4 -4,4"/>
<text text-anchor="start" x="398.0091" y="-42.4" font-family="sans-serif" font-weight="bold" font-size="14.00" fill="#000000">Legend</text>
<polygon fill="#ffffb3" stroke="transparent" points="185,-10 185,-30 205,-30 205,-10 185,-10"/>
<text text-anchor="start" x="208.629" y="-15.4" font-family="sans-serif" font-size="14.00" fill="#000000"> &#160;Declarations</text>
<polygon fill="#8dd3c7" stroke="transparent" points="298,-10 298,-30 318,-30 318,-10 298,-10"/>
<text text-anchor="start" x="321.7251" y="-15.4" font-family="sans-serif" font-size="14.00" fill="#000000"> &#160;Module</text>
<polygon fill="#80b1d3" stroke="transparent" points="384,-10 384,-30 404,-30 404,-10 384,-10"/>
<text text-anchor="start" x="407.7812" y="-15.4" font-family="sans-serif" font-size="14.00" fill="#000000"> &#160;Bootstrap</text>
<polygon fill="#fdb462" stroke="transparent" points="481,-10 481,-30 501,-30 501,-10 481,-10"/>
<text text-anchor="start" x="504.6732" y="-15.4" font-family="sans-serif" font-size="14.00" fill="#000000"> &#160;Providers</text>
<polygon fill="#fb8072" stroke="transparent" points="577,-10 577,-30 597,-30 597,-10 577,-10"/>
<text text-anchor="start" x="600.7258" y="-15.4" font-family="sans-serif" font-size="14.00" fill="#000000"> &#160;Exports</text>
<g id="clust1" class="cluster">
<title>cluster_CoreModule</title>
<polygon fill="none" stroke="#000000" stroke-dasharray="1,5" points="8,-70 8,-195 830,-195 830,-70 8,-70"/>
</g>
<g id="clust3" class="cluster">
<title>cluster_CoreModule_imports</title>
<polygon fill="none" stroke="#000000" points="678,-78 678,-130 822,-130 822,-78 678,-78"/>
</g>
<g id="clust6" class="cluster">
<title>cluster_CoreModule_providers</title>
<polygon fill="none" stroke="#000000" points="16,-78 16,-130 670,-130 670,-78 16,-78"/>
</g>
<!-- AppRoutingModule -->
<g id="node1" class="node">
<title>AppRoutingModule</title>
<polygon fill="#8dd3c7" stroke="#000000" points="814.2744,-122 811.2744,-126 790.2744,-126 787.2744,-122 685.7256,-122 685.7256,-86 814.2744,-86 814.2744,-122"/>
<text text-anchor="middle" x="750" y="-99.8" font-family="Times,serif" font-size="14.00" fill="#000000">AppRoutingModule</text>
</g>
<!-- CoreModule -->
<g id="node2" class="node">
<title>CoreModule</title>
<polygon fill="#8dd3c7" stroke="#000000" points="475.2619,-187 472.2619,-191 451.2619,-191 448.2619,-187 388.7381,-187 388.7381,-151 475.2619,-151 475.2619,-187"/>
<text text-anchor="middle" x="432" y="-164.8" font-family="Times,serif" font-size="14.00" fill="#000000">CoreModule</text>
</g>
<!-- AppRoutingModule&#45;&gt;CoreModule -->
<g id="edge1" class="edge">
<title>AppRoutingModule&#45;&gt;CoreModule</title>
<path fill="none" stroke="#000000" d="M750,-122.2843C750,-143.3211 750,-175 750,-175 750,-175 485.5498,-175 485.5498,-175"/>
<polygon fill="#000000" stroke="#000000" points="485.5498,-171.5001 475.5498,-175 485.5497,-178.5001 485.5498,-171.5001"/>
</g>
<!-- AuthService -->
<g id="node3" class="node">
<title>AuthService</title>
<ellipse fill="#fdb462" stroke="#000000" cx="603" cy="-104" rx="59.1083" ry="18"/>
<text text-anchor="middle" x="603" y="-99.8" font-family="Times,serif" font-size="14.00" fill="#000000">AuthService</text>
</g>
<!-- AuthService&#45;&gt;CoreModule -->
<g id="edge2" class="edge">
<title>AuthService&#45;&gt;CoreModule</title>
<path fill="none" stroke="#000000" d="M603,-122.0225C603,-139.3734 603,-163 603,-163 603,-163 485.593,-163 485.593,-163"/>
<polygon fill="#000000" stroke="#000000" points="485.593,-159.5001 475.593,-163 485.5929,-166.5001 485.593,-159.5001"/>
</g>
<!-- CamundaRestService -->
<g id="node4" class="node">
<title>CamundaRestService</title>
<ellipse fill="#fdb462" stroke="#000000" cx="432" cy="-104" rx="94.3389" ry="18"/>
<text text-anchor="middle" x="432" y="-99.8" font-family="Times,serif" font-size="14.00" fill="#000000">CamundaRestService</text>
</g>
<!-- CamundaRestService&#45;&gt;CoreModule -->
<g id="edge3" class="edge">
<title>CamundaRestService&#45;&gt;CoreModule</title>
<path fill="none" stroke="#000000" d="M432,-122.1061C432,-122.1061 432,-140.991 432,-140.991"/>
<polygon fill="#000000" stroke="#000000" points="428.5001,-140.9909 432,-150.991 435.5001,-140.991 428.5001,-140.9909"/>
</g>
<!-- EventsService -->
<g id="node5" class="node">
<title>EventsService</title>
<ellipse fill="#fdb462" stroke="#000000" cx="254" cy="-104" rx="66.0492" ry="18"/>
<text text-anchor="middle" x="254" y="-99.8" font-family="Times,serif" font-size="14.00" fill="#000000">EventsService</text>
</g>
<!-- EventsService&#45;&gt;CoreModule -->
<g id="edge4" class="edge">
<title>EventsService&#45;&gt;CoreModule</title>
<path fill="none" stroke="#000000" d="M254,-122.0225C254,-139.3734 254,-163 254,-163 254,-163 378.4563,-163 378.4563,-163"/>
<polygon fill="#000000" stroke="#000000" points="378.4563,-166.5001 388.4563,-163 378.4563,-159.5001 378.4563,-166.5001"/>
</g>
<!-- ExternalService -->
<g id="node6" class="node">
<title>ExternalService</title>
<ellipse fill="#fdb462" stroke="#000000" cx="97" cy="-104" rx="72.9082" ry="18"/>
<text text-anchor="middle" x="97" y="-99.8" font-family="Times,serif" font-size="14.00" fill="#000000">ExternalService</text>
</g>
<!-- ExternalService&#45;&gt;CoreModule -->
<g id="edge5" class="edge">
<title>ExternalService&#45;&gt;CoreModule</title>
<path fill="none" stroke="#000000" d="M97,-122.2843C97,-143.3211 97,-175 97,-175 97,-175 378.548,-175 378.548,-175"/>
<polygon fill="#000000" stroke="#000000" points="378.5481,-178.5001 388.548,-175 378.548,-171.5001 378.5481,-178.5001"/>
</g>
</g>
</svg>
