<?xml version="1.0" encoding="UTF-8" standalone="no"?>
<!DOCTYPE svg PUBLIC "-//W3C//DTD SVG 1.1//EN"
 "http://www.w3.org/Graphics/SVG/1.1/DTD/svg11.dtd">
<!-- Generated by graphviz version 2.40.1 (20161225.0304)
 -->
<!-- Title: dependencies Pages: 1 -->
<svg width="924pt" height="284pt"
 viewBox="0.00 0.00 924.00 284.00" xmlns="http://www.w3.org/2000/svg" xmlns:xlink="http://www.w3.org/1999/xlink">
<g id="graph0" class="graph" transform="scale(1 1) rotate(0) translate(4 280)">
<title>dependencies</title>
<polygon fill="#ffffff" stroke="transparent" points="-4,4 -4,-280 920,-280 920,4 -4,4"/>
<text text-anchor="start" x="437.0091" y="-42.4" font-family="sans-serif" font-weight="bold" font-size="14.00" fill="#000000">Legend</text>
<polygon fill="#ffffb3" stroke="transparent" points="224,-10 224,-30 244,-30 244,-10 224,-10"/>
<text text-anchor="start" x="247.629" y="-15.4" font-family="sans-serif" font-size="14.00" fill="#000000"> &#160;Declarations</text>
<polygon fill="#8dd3c7" stroke="transparent" points="337,-10 337,-30 357,-30 357,-10 337,-10"/>
<text text-anchor="start" x="360.7251" y="-15.4" font-family="sans-serif" font-size="14.00" fill="#000000"> &#160;Module</text>
<polygon fill="#80b1d3" stroke="transparent" points="423,-10 423,-30 443,-30 443,-10 423,-10"/>
<text text-anchor="start" x="446.7812" y="-15.4" font-family="sans-serif" font-size="14.00" fill="#000000"> &#160;Bootstrap</text>
<polygon fill="#fdb462" stroke="transparent" points="520,-10 520,-30 540,-30 540,-10 520,-10"/>
<text text-anchor="start" x="543.6732" y="-15.4" font-family="sans-serif" font-size="14.00" fill="#000000"> &#160;Providers</text>
<polygon fill="#fb8072" stroke="transparent" points="616,-10 616,-30 636,-30 636,-10 616,-10"/>
<text text-anchor="start" x="639.7258" y="-15.4" font-family="sans-serif" font-size="14.00" fill="#000000"> &#160;Exports</text>
<g id="clust1" class="cluster">
<title>cluster_SharedModule</title>
<polygon fill="none" stroke="#000000" stroke-dasharray="1,5" points="8,-70 8,-268 908,-268 908,-70 8,-70"/>
</g>
<g id="clust2" class="cluster">
<title>cluster_SharedModule_declarations</title>
<polygon fill="none" stroke="#000000" points="25,-78 25,-130 891,-130 891,-78 25,-78"/>
</g>
<g id="clust9" class="cluster">
<title>cluster_SharedModule_exports</title>
<polygon fill="none" stroke="#000000" points="16,-208 16,-260 900,-260 900,-208 16,-208"/>
</g>
<!-- HeaderComponent -->
<g id="node1" class="node">
<title>HeaderComponent</title>
<polygon fill="#ffffb3" stroke="#000000" points="882.7437,-122 761.2563,-122 761.2563,-86 882.7437,-86 882.7437,-122"/>
<text text-anchor="middle" x="822" y="-99.8" font-family="Times,serif" font-size="14.00" fill="#000000">HeaderComponent</text>
</g>
<!-- SharedModule -->
<g id="node6" class="node">
<title>SharedModule</title>
<polygon fill="#8dd3c7" stroke="#000000" points="550.4231,-187 547.4231,-191 526.4231,-191 523.4231,-187 451.5769,-187 451.5769,-151 550.4231,-151 550.4231,-187"/>
<text text-anchor="middle" x="501" y="-164.8" font-family="Times,serif" font-size="14.00" fill="#000000">SharedModule</text>
</g>
<!-- HeaderComponent&#45;&gt;SharedModule -->
<g id="edge1" class="edge">
<title>HeaderComponent&#45;&gt;SharedModule</title>
<path fill="none" stroke="#000000" d="M844.0406,-122.2667C844.0406,-140.5552 844.0406,-166 844.0406,-166 844.0406,-166 560.5147,-166 560.5147,-166"/>
<polygon fill="#000000" stroke="#000000" points="560.5147,-162.5001 550.5147,-166 560.5146,-169.5001 560.5147,-162.5001"/>
</g>
<!-- LanguageComponent -->
<g id="node2" class="node">
<title>LanguageComponent</title>
<polygon fill="#ffffb3" stroke="#000000" points="743.0296,-122 606.9704,-122 606.9704,-86 743.0296,-86 743.0296,-122"/>
<text text-anchor="middle" x="675" y="-99.8" font-family="Times,serif" font-size="14.00" fill="#000000">LanguageComponent</text>
</g>
<!-- LanguageComponent&#45;&gt;SharedModule -->
<g id="edge2" class="edge">
<title>LanguageComponent&#45;&gt;SharedModule</title>
<path fill="none" stroke="#000000" d="M698.1715,-122.0091C698.1715,-138.0494 698.1715,-159 698.1715,-159 698.1715,-159 560.2461,-159 560.2461,-159"/>
<polygon fill="#000000" stroke="#000000" points="560.2461,-155.5001 550.2461,-159 560.246,-162.5001 560.2461,-155.5001"/>
</g>
<!-- LanguageSwitchComponent -->
<g id="node3" class="node">
<title>LanguageSwitchComponent</title>
<polygon fill="#ffffb3" stroke="#000000" points="588.9143,-122 413.0857,-122 413.0857,-86 588.9143,-86 588.9143,-122"/>
<text text-anchor="middle" x="501" y="-99.8" font-family="Times,serif" font-size="14.00" fill="#000000">LanguageSwitchComponent</text>
</g>
<!-- LanguageSwitchComponent&#45;&gt;SharedModule -->
<g id="edge3" class="edge">
<title>LanguageSwitchComponent&#45;&gt;SharedModule</title>
<path fill="none" stroke="#000000" d="M501,-122.1061C501,-122.1061 501,-140.991 501,-140.991"/>
<polygon fill="#000000" stroke="#000000" points="497.5001,-140.9909 501,-150.991 504.5001,-140.991 497.5001,-140.9909"/>
</g>
<!-- NotificationsButtonComponent -->
<g id="node4" class="node">
<title>NotificationsButtonComponent</title>
<polygon fill="#ffffb3" stroke="#000000" points="395.0447,-122 202.9553,-122 202.9553,-86 395.0447,-86 395.0447,-122"/>
<text text-anchor="middle" x="299" y="-99.8" font-family="Times,serif" font-size="14.00" fill="#000000">NotificationsButtonComponent</text>
</g>
<!-- NotificationsButtonComponent&#45;&gt;SharedModule -->
<g id="edge4" class="edge">
<title>NotificationsButtonComponent&#45;&gt;SharedModule</title>
<path fill="none" stroke="#000000" d="M330.2574,-122.0091C330.2574,-138.0494 330.2574,-159 330.2574,-159 330.2574,-159 441.6142,-159 441.6142,-159"/>
<polygon fill="#000000" stroke="#000000" points="441.6142,-162.5001 451.6142,-159 441.6141,-155.5001 441.6142,-162.5001"/>
</g>
<!-- UserOptionsComponent -->
<g id="node5" class="node">
<title>UserOptionsComponent</title>
<polygon fill="#ffffb3" stroke="#000000" points="185.0912,-122 32.9088,-122 32.9088,-86 185.0912,-86 185.0912,-122"/>
<text text-anchor="middle" x="109" y="-99.8" font-family="Times,serif" font-size="14.00" fill="#000000">UserOptionsComponent</text>
</g>
<!-- UserOptionsComponent&#45;&gt;SharedModule -->
<g id="edge5" class="edge">
<title>UserOptionsComponent&#45;&gt;SharedModule</title>
<path fill="none" stroke="#000000" d="M130.8485,-122.2667C130.8485,-140.5552 130.8485,-166 130.8485,-166 130.8485,-166 441.4638,-166 441.4638,-166"/>
<polygon fill="#000000" stroke="#000000" points="441.4638,-169.5001 451.4638,-166 441.4638,-162.5001 441.4638,-169.5001"/>
</g>
<!-- HeaderComponent  -->
<g id="node7" class="node">
<title>HeaderComponent </title>
<polygon fill="#fb8072" stroke="#000000" points="891.7436,-252 766.2564,-252 766.2564,-216 891.7436,-216 891.7436,-252"/>
<text text-anchor="middle" x="829" y="-229.8" font-family="Times,serif" font-size="14.00" fill="#000000">HeaderComponent </text>
</g>
<!-- SharedModule&#45;&gt;HeaderComponent  -->
<g id="edge6" class="edge">
<title>SharedModule&#45;&gt;HeaderComponent </title>
<path fill="none" stroke="#000000" stroke-dasharray="5,2" d="M550.2146,-173C636.3125,-173 805.2094,-173 805.2094,-173 805.2094,-173 805.2094,-205.698 805.2094,-205.698"/>
<polygon fill="#000000" stroke="#000000" points="801.7095,-205.698 805.2094,-215.698 808.7095,-205.698 801.7095,-205.698"/>
</g>
<!-- LanguageComponent  -->
<g id="node8" class="node">
<title>LanguageComponent </title>
<polygon fill="#fb8072" stroke="#000000" points="748.0288,-252 607.9712,-252 607.9712,-216 748.0288,-216 748.0288,-252"/>
<text text-anchor="middle" x="678" y="-229.8" font-family="Times,serif" font-size="14.00" fill="#000000">LanguageComponent </text>
</g>
<!-- SharedModule&#45;&gt;LanguageComponent  -->
<g id="edge7" class="edge">
<title>SharedModule&#45;&gt;LanguageComponent </title>
<path fill="none" stroke="#000000" stroke-dasharray="5,2" d="M550.3755,-180C594.7815,-180 653.0785,-180 653.0785,-180 653.0785,-180 653.0785,-205.7181 653.0785,-205.7181"/>
<polygon fill="#000000" stroke="#000000" points="649.5786,-205.718 653.0785,-215.7181 656.5786,-205.7181 649.5786,-205.718"/>
</g>
<!-- LanguageSwitchComponent  -->
<g id="node9" class="node">
<title>LanguageSwitchComponent </title>
<polygon fill="#fb8072" stroke="#000000" points="590.4138,-252 411.5862,-252 411.5862,-216 590.4138,-216 590.4138,-252"/>
<text text-anchor="middle" x="501" y="-229.8" font-family="Times,serif" font-size="14.00" fill="#000000">LanguageSwitchComponent </text>
</g>
<!-- SharedModule&#45;&gt;LanguageSwitchComponent  -->
<g id="edge8" class="edge">
<title>SharedModule&#45;&gt;LanguageSwitchComponent </title>
<path fill="none" stroke="#000000" stroke-dasharray="5,2" d="M501,-187.1061C501,-187.1061 501,-205.991 501,-205.991"/>
<polygon fill="#000000" stroke="#000000" points="497.5001,-205.9909 501,-215.991 504.5001,-205.991 497.5001,-205.9909"/>
</g>
<!-- NotificationsButtonComponent  -->
<g id="node10" class="node">
<title>NotificationsButtonComponent </title>
<polygon fill="#fb8072" stroke="#000000" points="394.0442,-252 197.9558,-252 197.9558,-216 394.0442,-216 394.0442,-252"/>
<text text-anchor="middle" x="296" y="-229.8" font-family="Times,serif" font-size="14.00" fill="#000000">NotificationsButtonComponent </text>
</g>
<!-- SharedModule&#45;&gt;NotificationsButtonComponent  -->
<g id="edge9" class="edge">
<title>SharedModule&#45;&gt;NotificationsButtonComponent </title>
<path fill="none" stroke="#000000" stroke-dasharray="5,2" d="M451.5536,-180C382.7518,-180 266.4926,-180 266.4926,-180 266.4926,-180 266.4926,-205.7181 266.4926,-205.7181"/>
<polygon fill="#000000" stroke="#000000" points="262.9927,-205.718 266.4926,-215.7181 269.9927,-205.7181 262.9927,-205.718"/>
</g>
<!-- UserOptionsComponent  -->
<g id="node11" class="node">
<title>UserOptionsComponent </title>
<polygon fill="#fb8072" stroke="#000000" points="179.5917,-252 24.4083,-252 24.4083,-216 179.5917,-216 179.5917,-252"/>
<text text-anchor="middle" x="102" y="-229.8" font-family="Times,serif" font-size="14.00" fill="#000000">UserOptionsComponent </text>
</g>
<!-- SharedModule&#45;&gt;UserOptionsComponent  -->
<g id="edge10" class="edge">
<title>SharedModule&#45;&gt;UserOptionsComponent </title>
<path fill="none" stroke="#000000" stroke-dasharray="5,2" d="M451.6917,-173C340.9064,-173 81.9015,-173 81.9015,-173 81.9015,-173 81.9015,-205.698 81.9015,-205.698"/>
<polygon fill="#000000" stroke="#000000" points="78.4014,-205.698 81.9015,-215.698 85.4014,-205.698 78.4014,-205.698"/>
</g>
</g>
</svg>
