<?xml version="1.0" encoding="UTF-8" standalone="no"?>
<!DOCTYPE svg PUBLIC "-//W3C//DTD SVG 1.1//EN"
 "http://www.w3.org/Graphics/SVG/1.1/DTD/svg11.dtd">
<!-- Generated by graphviz version 2.40.1 (20161225.0304)
 -->
<!-- Title: dependencies Pages: 1 -->
<svg width="582pt" height="284pt"
 viewBox="0.00 0.00 582.00 284.00" xmlns="http://www.w3.org/2000/svg" xmlns:xlink="http://www.w3.org/1999/xlink">
<g id="graph0" class="graph" transform="scale(1 1) rotate(0) translate(4 280)">
<title>dependencies</title>
<polygon fill="#ffffff" stroke="transparent" points="-4,4 -4,-280 578,-280 578,4 -4,4"/>
<text text-anchor="start" x="266.0091" y="-42.4" font-family="sans-serif" font-weight="bold" font-size="14.00" fill="#000000">Legend</text>
<polygon fill="#ffffb3" stroke="transparent" points="53,-10 53,-30 73,-30 73,-10 53,-10"/>
<text text-anchor="start" x="76.629" y="-15.4" font-family="sans-serif" font-size="14.00" fill="#000000"> &#160;Declarations</text>
<polygon fill="#8dd3c7" stroke="transparent" points="166,-10 166,-30 186,-30 186,-10 166,-10"/>
<text text-anchor="start" x="189.7251" y="-15.4" font-family="sans-serif" font-size="14.00" fill="#000000"> &#160;Module</text>
<polygon fill="#80b1d3" stroke="transparent" points="252,-10 252,-30 272,-30 272,-10 252,-10"/>
<text text-anchor="start" x="275.7812" y="-15.4" font-family="sans-serif" font-size="14.00" fill="#000000"> &#160;Bootstrap</text>
<polygon fill="#fdb462" stroke="transparent" points="349,-10 349,-30 369,-30 369,-10 349,-10"/>
<text text-anchor="start" x="372.6732" y="-15.4" font-family="sans-serif" font-size="14.00" fill="#000000"> &#160;Providers</text>
<polygon fill="#fb8072" stroke="transparent" points="445,-10 445,-30 465,-30 465,-10 445,-10"/>
<text text-anchor="start" x="468.7258" y="-15.4" font-family="sans-serif" font-size="14.00" fill="#000000"> &#160;Exports</text>
<g id="clust1" class="cluster">
<title>cluster_FormModule</title>
<polygon fill="none" stroke="#000000" stroke-dasharray="1,5" points="8,-70 8,-268 566,-268 566,-70 8,-70"/>
</g>
<g id="clust2" class="cluster">
<title>cluster_FormModule_declarations</title>
<polygon fill="none" stroke="#000000" points="266,-78 266,-130 558,-130 558,-78 266,-78"/>
</g>
<g id="clust5" class="cluster">
<title>cluster_FormModule_imports</title>
<polygon fill="none" stroke="#000000" points="16,-78 16,-130 258,-130 258,-78 16,-78"/>
</g>
<g id="clust6" class="cluster">
<title>cluster_FormModule_exports</title>
<polygon fill="none" stroke="#000000" points="118,-208 118,-260 418,-260 418,-208 118,-208"/>
</g>
<!-- AppFormioComponent -->
<g id="node1" class="node">
<title>AppFormioComponent</title>
<polygon fill="#ffffb3" stroke="#000000" points="550.1638,-122 403.8362,-122 403.8362,-86 550.1638,-86 550.1638,-122"/>
<text text-anchor="middle" x="477" y="-99.8" font-family="Times,serif" font-size="14.00" fill="#000000">AppFormioComponent</text>
</g>
<!-- FormModule -->
<g id="node3" class="node">
<title>FormModule</title>
<polygon fill="#8dd3c7" stroke="#000000" points="303.8837,-187 300.8837,-191 279.8837,-191 276.8837,-187 214.1163,-187 214.1163,-151 303.8837,-151 303.8837,-187"/>
<text text-anchor="middle" x="259" y="-164.8" font-family="Times,serif" font-size="14.00" fill="#000000">FormModule</text>
</g>
<!-- AppFormioComponent&#45;&gt;FormModule -->
<g id="edge1" class="edge">
<title>AppFormioComponent&#45;&gt;FormModule</title>
<path fill="none" stroke="#000000" d="M480.2067,-122.1061C480.2067,-141.3391 480.2067,-169 480.2067,-169 480.2067,-169 314.0311,-169 314.0311,-169"/>
<polygon fill="#000000" stroke="#000000" points="314.0311,-165.5001 304.0311,-169 314.0311,-172.5001 314.0311,-165.5001"/>
</g>
<!-- FormComponent -->
<g id="node2" class="node">
<title>FormComponent</title>
<polygon fill="#ffffb3" stroke="#000000" points="385.6667,-122 274.3333,-122 274.3333,-86 385.6667,-86 385.6667,-122"/>
<text text-anchor="middle" x="330" y="-99.8" font-family="Times,serif" font-size="14.00" fill="#000000">FormComponent</text>
</g>
<!-- FormComponent&#45;&gt;FormModule -->
<g id="edge2" class="edge">
<title>FormComponent&#45;&gt;FormModule</title>
<path fill="none" stroke="#000000" d="M289.0544,-122.1061C289.0544,-122.1061 289.0544,-140.991 289.0544,-140.991"/>
<polygon fill="#000000" stroke="#000000" points="285.5544,-140.9909 289.0544,-150.991 292.5544,-140.991 285.5544,-140.9909"/>
</g>
<!-- AppFormioComponent  -->
<g id="node6" class="node">
<title>AppFormioComponent </title>
<polygon fill="#fb8072" stroke="#000000" points="410.1635,-252 259.8365,-252 259.8365,-216 410.1635,-216 410.1635,-252"/>
<text text-anchor="middle" x="335" y="-229.8" font-family="Times,serif" font-size="14.00" fill="#000000">AppFormioComponent </text>
</g>
<!-- FormModule&#45;&gt;AppFormioComponent  -->
<g id="edge5" class="edge">
<title>FormModule&#45;&gt;AppFormioComponent </title>
<path fill="none" stroke="#000000" stroke-dasharray="5,2" d="M281.9301,-187.1061C281.9301,-187.1061 281.9301,-205.991 281.9301,-205.991"/>
<polygon fill="#000000" stroke="#000000" points="278.4301,-205.9909 281.9301,-215.991 285.4301,-205.991 278.4301,-205.9909"/>
</g>
<!-- FormComponent  -->
<g id="node7" class="node">
<title>FormComponent </title>
<polygon fill="#fb8072" stroke="#000000" points="241.6663,-252 126.3337,-252 126.3337,-216 241.6663,-216 241.6663,-252"/>
<text text-anchor="middle" x="184" y="-229.8" font-family="Times,serif" font-size="14.00" fill="#000000">FormComponent </text>
</g>
<!-- FormModule&#45;&gt;FormComponent  -->
<g id="edge6" class="edge">
<title>FormModule&#45;&gt;FormComponent </title>
<path fill="none" stroke="#000000" stroke-dasharray="5,2" d="M227.8207,-187.1061C227.8207,-187.1061 227.8207,-205.991 227.8207,-205.991"/>
<polygon fill="#000000" stroke="#000000" points="224.3207,-205.9909 227.8207,-215.991 231.3207,-205.991 224.3207,-205.9909"/>
</g>
<!-- FormioResource -->
<g id="node4" class="node">
<title>FormioResource</title>
<polygon fill="#8dd3c7" stroke="#000000" points="249.8104,-122 246.8104,-126 225.8104,-126 222.8104,-122 140.1896,-122 140.1896,-86 249.8104,-86 249.8104,-122"/>
<text text-anchor="middle" x="195" y="-99.8" font-family="Times,serif" font-size="14.00" fill="#000000">FormioResource</text>
</g>
<!-- FormioResource&#45;&gt;FormModule -->
<g id="edge3" class="edge">
<title>FormioResource&#45;&gt;FormModule</title>
<path fill="none" stroke="#000000" d="M231.8566,-122.1061C231.8566,-122.1061 231.8566,-140.991 231.8566,-140.991"/>
<polygon fill="#000000" stroke="#000000" points="228.3567,-140.9909 231.8566,-150.991 235.3567,-140.991 228.3567,-140.9909"/>
</g>
<!-- SharedModule -->
<g id="node5" class="node">
<title>SharedModule</title>
<polygon fill="#8dd3c7" stroke="#000000" points="122.4231,-122 119.4231,-126 98.4231,-126 95.4231,-122 23.5769,-122 23.5769,-86 122.4231,-86 122.4231,-122"/>
<text text-anchor="middle" x="73" y="-99.8" font-family="Times,serif" font-size="14.00" fill="#000000">SharedModule</text>
</g>
<!-- SharedModule&#45;&gt;FormModule -->
<g id="edge4" class="edge">
<title>SharedModule&#45;&gt;FormModule</title>
<path fill="none" stroke="#000000" d="M73,-122.1061C73,-141.3391 73,-169 73,-169 73,-169 203.9746,-169 203.9746,-169"/>
<polygon fill="#000000" stroke="#000000" points="203.9746,-172.5001 213.9746,-169 203.9746,-165.5001 203.9746,-172.5001"/>
</g>
</g>
</svg>
