<?xml version="1.0" encoding="UTF-8" standalone="no"?>
<!DOCTYPE svg PUBLIC "-//W3C//DTD SVG 1.1//EN"
 "http://www.w3.org/Graphics/SVG/1.1/DTD/svg11.dtd">
<!-- Generated by graphviz version 2.40.1 (20161225.0304)
 -->
<!-- Title: dependencies Pages: 1 -->
<svg width="584pt" height="211pt"
 viewBox="0.00 0.00 584.00 211.00" xmlns="http://www.w3.org/2000/svg" xmlns:xlink="http://www.w3.org/1999/xlink">
<g id="graph0" class="graph" transform="scale(1 1) rotate(0) translate(4 207)">
<title>dependencies</title>
<polygon fill="#ffffff" stroke="transparent" points="-4,4 -4,-207 580,-207 580,4 -4,4"/>
<text text-anchor="start" x="267.0091" y="-42.4" font-family="sans-serif" font-weight="bold" font-size="14.00" fill="#000000">Legend</text>
<polygon fill="#ffffb3" stroke="transparent" points="54,-10 54,-30 74,-30 74,-10 54,-10"/>
<text text-anchor="start" x="77.629" y="-15.4" font-family="sans-serif" font-size="14.00" fill="#000000"> &#160;Declarations</text>
<polygon fill="#8dd3c7" stroke="transparent" points="167,-10 167,-30 187,-30 187,-10 167,-10"/>
<text text-anchor="start" x="190.7251" y="-15.4" font-family="sans-serif" font-size="14.00" fill="#000000"> &#160;Module</text>
<polygon fill="#80b1d3" stroke="transparent" points="253,-10 253,-30 273,-30 273,-10 253,-10"/>
<text text-anchor="start" x="276.7812" y="-15.4" font-family="sans-serif" font-size="14.00" fill="#000000"> &#160;Bootstrap</text>
<polygon fill="#fdb462" stroke="transparent" points="350,-10 350,-30 370,-30 370,-10 350,-10"/>
<text text-anchor="start" x="373.6732" y="-15.4" font-family="sans-serif" font-size="14.00" fill="#000000"> &#160;Providers</text>
<polygon fill="#fb8072" stroke="transparent" points="446,-10 446,-30 466,-30 466,-10 446,-10"/>
<text text-anchor="start" x="469.7258" y="-15.4" font-family="sans-serif" font-size="14.00" fill="#000000"> &#160;Exports</text>
<g id="clust1" class="cluster">
<title>cluster_AuthModule</title>
<polygon fill="none" stroke="#000000" stroke-dasharray="1,5" points="8,-70 8,-195 568,-195 568,-70 8,-70"/>
</g>
<g id="clust2" class="cluster">
<title>cluster_AuthModule_declarations</title>
<polygon fill="none" stroke="#000000" points="242,-78 242,-130 560,-130 560,-78 242,-78"/>
</g>
<g id="clust5" class="cluster">
<title>cluster_AuthModule_imports</title>
<polygon fill="none" stroke="#000000" points="16,-78 16,-130 234,-130 234,-78 16,-78"/>
</g>
<!-- AuthIndexComponent -->
<g id="node1" class="node">
<title>AuthIndexComponent</title>
<polygon fill="#ffffb3" stroke="#000000" points="551.7049,-122 410.2951,-122 410.2951,-86 551.7049,-86 551.7049,-122"/>
<text text-anchor="middle" x="481" y="-99.8" font-family="Times,serif" font-size="14.00" fill="#000000">AuthIndexComponent</text>
</g>
<!-- AuthModule -->
<g id="node3" class="node">
<title>AuthModule</title>
<polygon fill="#8dd3c7" stroke="#000000" points="295.5482,-187 292.5482,-191 271.5482,-191 268.5482,-187 208.4518,-187 208.4518,-151 295.5482,-151 295.5482,-187"/>
<text text-anchor="middle" x="252" y="-164.8" font-family="Times,serif" font-size="14.00" fill="#000000">AuthModule</text>
</g>
<!-- AuthIndexComponent&#45;&gt;AuthModule -->
<g id="edge1" class="edge">
<title>AuthIndexComponent&#45;&gt;AuthModule</title>
<path fill="none" stroke="#000000" d="M481,-122.1061C481,-141.3391 481,-169 481,-169 481,-169 305.6122,-169 305.6122,-169"/>
<polygon fill="#000000" stroke="#000000" points="305.6122,-165.5001 295.6122,-169 305.6121,-172.5001 305.6122,-165.5001"/>
</g>
<!-- AuthLoginComponent -->
<g id="node2" class="node">
<title>AuthLoginComponent</title>
<polygon fill="#ffffb3" stroke="#000000" points="392.273,-122 249.727,-122 249.727,-86 392.273,-86 392.273,-122"/>
<text text-anchor="middle" x="321" y="-99.8" font-family="Times,serif" font-size="14.00" fill="#000000">AuthLoginComponent</text>
</g>
<!-- AuthLoginComponent&#45;&gt;AuthModule -->
<g id="edge2" class="edge">
<title>AuthLoginComponent&#45;&gt;AuthModule</title>
<path fill="none" stroke="#000000" d="M272.6936,-122.1061C272.6936,-122.1061 272.6936,-140.991 272.6936,-140.991"/>
<polygon fill="#000000" stroke="#000000" points="269.1936,-140.9909 272.6936,-150.991 276.1936,-140.991 269.1936,-140.9909"/>
</g>
<!-- FormioAuth -->
<g id="node4" class="node">
<title>FormioAuth</title>
<polygon fill="#8dd3c7" stroke="#000000" points="225.7219,-122 222.7219,-126 201.7219,-126 198.7219,-122 140.2781,-122 140.2781,-86 225.7219,-86 225.7219,-122"/>
<text text-anchor="middle" x="183" y="-99.8" font-family="Times,serif" font-size="14.00" fill="#000000">FormioAuth</text>
</g>
<!-- FormioAuth&#45;&gt;AuthModule -->
<g id="edge3" class="edge">
<title>FormioAuth&#45;&gt;AuthModule</title>
<path fill="none" stroke="#000000" d="M216.9187,-122.1061C216.9187,-122.1061 216.9187,-140.991 216.9187,-140.991"/>
<polygon fill="#000000" stroke="#000000" points="213.4187,-140.9909 216.9187,-150.991 220.4187,-140.991 213.4187,-140.9909"/>
</g>
<!-- SharedModule -->
<g id="node5" class="node">
<title>SharedModule</title>
<polygon fill="#8dd3c7" stroke="#000000" points="122.4231,-122 119.4231,-126 98.4231,-126 95.4231,-122 23.5769,-122 23.5769,-86 122.4231,-86 122.4231,-122"/>
<text text-anchor="middle" x="73" y="-99.8" font-family="Times,serif" font-size="14.00" fill="#000000">SharedModule</text>
</g>
<!-- SharedModule&#45;&gt;AuthModule -->
<g id="edge4" class="edge">
<title>SharedModule&#45;&gt;AuthModule</title>
<path fill="none" stroke="#000000" d="M73,-122.1061C73,-141.3391 73,-169 73,-169 73,-169 198.2117,-169 198.2117,-169"/>
<polygon fill="#000000" stroke="#000000" points="198.2117,-172.5001 208.2117,-169 198.2116,-165.5001 198.2117,-172.5001"/>
</g>
</g>
</svg>
